<svg width="175" height="51" viewBox="0 0 175 51" fill="none" xmlns="http://www.w3.org/2000/svg">
<path d="M1 9C6.6335 21.4143 6.02448 29.1143 1 42C9.93085 30.5 30.8714 53.9606 34.1377 32.6054C23.6323 39.2509 18.1361 26.5838 11.0237 32.6021C15.8739 27.85 13.6105 9.95042 1 9Z" fill="#05932D"/>
<path d="M34.1429 32.5714C30.8936 53.9855 9.93557 30.4939 1 42C6.02448 29.1143 6.6335 21.4143 1 9C13.6105 9.95042 15.8739 27.85 11.0237 32.6021C18.1373 26.5828 23.6341 39.255 34.1429 32.6021" stroke="black" stroke-width="1.1"/>
<ellipse cx="35.5714" cy="29.8776" rx="1.42857" ry="1.34694" fill="#0590A8"/>
<path d="M51.772 12.8H56.38V33.896H66.748V38H51.772V12.8ZM77.0491 38.36C75.1531 38.36 73.5091 37.94 72.1171 37.1C70.7251 36.26 69.6571 35.132 68.9131 33.716C68.1691 32.3 67.7971 30.74 67.7971 29.036C67.7971 27.332 68.1691 25.76 68.9131 24.32C69.6571 22.88 70.7251 21.74 72.1171 20.9C73.5091 20.06 75.1531 19.64 77.0491 19.64C78.9451 19.64 80.5891 20.06 81.9811 20.9C83.3731 21.74 84.4411 22.88 85.1851 24.32C85.9291 25.76 86.3011 27.332 86.3011 29.036C86.3011 30.74 85.9291 32.3 85.1851 33.716C84.4411 35.132 83.3731 36.26 81.9811 37.1C80.5891 37.94 78.9451 38.36 77.0491 38.36ZM77.0491 34.688C78.5131 34.688 79.6531 34.172 80.4691 33.14C81.3091 32.108 81.7291 30.74 81.7291 29.036C81.7291 27.308 81.3091 25.928 80.4691 24.896C79.6531 23.84 78.5131 23.312 77.0491 23.312C75.5851 23.312 74.4331 23.84 73.5931 24.896C72.7771 25.928 72.3691 27.308 72.3691 29.036C72.3691 30.74 72.7771 32.108 73.5931 33.14C74.4331 34.172 75.5851 34.688 77.0491 34.688ZM97.7603 38.36C95.7683 38.36 94.0523 37.952 92.6123 37.136C91.1963 36.296 90.1283 35.168 89.4083 33.752C88.6883 32.336 88.3283 30.764 88.3283 29.036C88.3283 27.284 88.6883 25.7 89.4083 24.284C90.1283 22.844 91.2083 21.716 92.6483 20.9C94.0883 20.06 95.8403 19.64 97.9043 19.64C99.7523 19.64 101.36 20.024 102.728 20.792L102.368 24.392C101.072 23.72 99.7283 23.384 98.3363 23.384C96.6323 23.384 95.3003 23.9 94.3403 24.932C93.3803 25.964 92.9003 27.332 92.9003 29.036C92.9003 30.668 93.3923 32.024 94.3763 33.104C95.3603 34.16 96.6683 34.688 98.3003 34.688C99.6683 34.688 101.036 34.292 102.404 33.5L102.8 37.28C102.152 37.616 101.384 37.88 100.496 38.072C99.6323 38.264 98.7203 38.36 97.7603 38.36ZM109.679 38.36C108.191 38.36 106.943 37.88 105.935 36.92C104.951 35.936 104.459 34.616 104.459 32.96C104.459 31.4 105.023 30.152 106.151 29.216C107.279 28.256 108.611 27.584 110.147 27.2C111.683 26.792 113.159 26.564 114.575 26.516C114.527 25.46 114.251 24.704 113.747 24.248C113.267 23.792 112.463 23.564 111.335 23.564C110.543 23.564 109.763 23.672 108.995 23.888C108.251 24.104 107.387 24.452 106.403 24.932L106.007 21.296C108.191 20.24 110.375 19.712 112.559 19.712C114.671 19.712 116.279 20.288 117.383 21.44C118.511 22.592 119.075 24.428 119.075 26.948V31.808C119.075 32.72 119.111 33.38 119.183 33.788C119.279 34.172 119.423 34.424 119.615 34.544C119.831 34.64 120.179 34.688 120.659 34.688H121.235L120.839 38.36H119.219C118.235 38.36 117.407 38.18 116.735 37.82C116.063 37.436 115.547 36.92 115.187 36.272C114.611 36.92 113.819 37.436 112.811 37.82C111.827 38.18 110.783 38.36 109.679 38.36ZM111.551 34.94C112.007 34.94 112.523 34.832 113.099 34.616C113.675 34.376 114.179 34.052 114.611 33.644V29.54C113.171 29.612 111.899 29.924 110.795 30.476C109.691 31.028 109.139 31.796 109.139 32.78C109.139 33.524 109.331 34.076 109.715 34.436C110.099 34.772 110.711 34.94 111.551 34.94ZM128.329 38.36C126.793 38.36 125.641 37.928 124.873 37.064C124.105 36.176 123.721 35.036 123.721 33.644V11H128.185V31.808C128.185 32.768 128.233 33.452 128.329 33.86C128.449 34.244 128.641 34.484 128.905 34.58C129.193 34.652 129.673 34.688 130.345 34.688L129.949 38.36H128.329ZM133.178 12.8H137.642V17.264H133.178V12.8ZM133.178 20H137.642V38H133.178V20ZM156.19 34.22V38H140.386L149.134 23.78H141.214V20H156.118L147.37 34.22H156.19ZM167.237 38.36C165.149 38.36 163.361 37.94 161.873 37.1C160.409 36.236 159.305 35.096 158.561 33.68C157.841 32.24 157.481 30.644 157.481 28.892C157.481 27.212 157.829 25.676 158.525 24.284C159.221 22.892 160.229 21.788 161.549 20.972C162.869 20.132 164.441 19.712 166.265 19.712C167.945 19.712 169.361 20.06 170.513 20.756C171.689 21.452 172.565 22.388 173.141 23.564C173.741 24.74 174.041 26.06 174.041 27.524C174.041 28.244 173.945 29.06 173.753 29.972H162.125C162.365 31.556 162.989 32.744 163.997 33.536C165.005 34.304 166.217 34.688 167.633 34.688C169.577 34.688 171.377 34.196 173.033 33.212L173.249 36.992C172.481 37.4 171.581 37.736 170.549 38C169.541 38.24 168.437 38.36 167.237 38.36ZM169.505 26.948C169.505 26.012 169.241 25.184 168.713 24.464C168.185 23.744 167.369 23.384 166.265 23.384C165.161 23.384 164.273 23.708 163.601 24.356C162.929 25.004 162.473 25.868 162.233 26.948H169.505Z" fill="black"/>
</svg>
