<svg width="175" height="51" viewBox="0 0 175 51" fill="none" xmlns="http://www.w3.org/2000/svg">
<path d="M1 9C6.6335 21.4143 6.02448 29.1143 1 42C9.93085 30.5 30.8714 53.9606 34.1377 32.6054C23.6323 39.2509 18.1361 26.5838 11.0237 32.6021C15.8739 27.85 13.6105 9.95042 1 9Z" fill="#05932D"/>
<path d="M34.1429 32.5714C30.8936 53.9855 9.93557 30.4939 1 42C6.02448 29.1143 6.6335 21.4143 1 9C13.6105 9.95042 15.8739 27.85 11.0237 32.6021C18.1373 26.5828 23.6341 39.255 34.1429 32.6021" stroke="black" stroke-width="1.1"/>
<ellipse cx="35.5714" cy="29.8776" rx="1.42857" ry="1.34694" fill="#0590A8"/>
<path d="M51.772 16.8H56.38V37.896H66.748V42H51.772V16.8ZM77.0491 42.36C75.1531 42.36 73.5091 41.94 72.1171 41.1C70.7251 40.26 69.6571 39.132 68.9131 37.716C68.1691 36.3 67.7971 34.74 67.7971 33.036C67.7971 31.332 68.1691 29.76 68.9131 28.32C69.6571 26.88 70.7251 25.74 72.1171 24.9C73.5091 24.06 75.1531 23.64 77.0491 23.64C78.9451 23.64 80.5891 24.06 81.9811 24.9C83.3731 25.74 84.4411 26.88 85.1851 28.32C85.9291 29.76 86.3011 31.332 86.3011 33.036C86.3011 34.74 85.9291 36.3 85.1851 37.716C84.4411 39.132 83.3731 40.26 81.9811 41.1C80.5891 41.94 78.9451 42.36 77.0491 42.36ZM77.0491 38.688C78.5131 38.688 79.6531 38.172 80.4691 37.14C81.3091 36.108 81.7291 34.74 81.7291 33.036C81.7291 31.308 81.3091 29.928 80.4691 28.896C79.6531 27.84 78.5131 27.312 77.0491 27.312C75.5851 27.312 74.4331 27.84 73.5931 28.896C72.7771 29.928 72.3691 31.308 72.3691 33.036C72.3691 34.74 72.7771 36.108 73.5931 37.14C74.4331 38.172 75.5851 38.688 77.0491 38.688ZM97.7603 42.36C95.7683 42.36 94.0523 41.952 92.6123 41.136C91.1963 40.296 90.1283 39.168 89.4083 37.752C88.6883 36.336 88.3283 34.764 88.3283 33.036C88.3283 31.284 88.6883 29.7 89.4083 28.284C90.1283 26.844 91.2083 25.716 92.6483 24.9C94.0883 24.06 95.8403 23.64 97.9043 23.64C99.7523 23.64 101.36 24.024 102.728 24.792L102.368 28.392C101.072 27.72 99.7283 27.384 98.3363 27.384C96.6323 27.384 95.3003 27.9 94.3403 28.932C93.3803 29.964 92.9003 31.332 92.9003 33.036C92.9003 34.668 93.3923 36.024 94.3763 37.104C95.3603 38.16 96.6683 38.688 98.3003 38.688C99.6683 38.688 101.036 38.292 102.404 37.5L102.8 41.28C102.152 41.616 101.384 41.88 100.496 42.072C99.6323 42.264 98.7203 42.36 97.7603 42.36ZM109.679 42.36C108.191 42.36 106.943 41.88 105.935 40.92C104.951 39.936 104.459 38.616 104.459 36.96C104.459 35.4 105.023 34.152 106.151 33.216C107.279 32.256 108.611 31.584 110.147 31.2C111.683 30.792 113.159 30.564 114.575 30.516C114.527 29.46 114.251 28.704 113.747 28.248C113.267 27.792 112.463 27.564 111.335 27.564C110.543 27.564 109.763 27.672 108.995 27.888C108.251 28.104 107.387 28.452 106.403 28.932L106.007 25.296C108.191 24.24 110.375 23.712 112.559 23.712C114.671 23.712 116.279 24.288 117.383 25.44C118.511 26.592 119.075 28.428 119.075 30.948V35.808C119.075 36.72 119.111 37.38 119.183 37.788C119.279 38.172 119.423 38.424 119.615 38.544C119.831 38.64 120.179 38.688 120.659 38.688H121.235L120.839 42.36H119.219C118.235 42.36 117.407 42.18 116.735 41.82C116.063 41.436 115.547 40.92 115.187 40.272C114.611 40.92 113.819 41.436 112.811 41.82C111.827 42.18 110.783 42.36 109.679 42.36ZM111.551 38.94C112.007 38.94 112.523 38.832 113.099 38.616C113.675 38.376 114.179 38.052 114.611 37.644V33.54C113.171 33.612 111.899 33.924 110.795 34.476C109.691 35.028 109.139 35.796 109.139 36.78C109.139 37.524 109.331 38.076 109.715 38.436C110.099 38.772 110.711 38.94 111.551 38.94ZM128.329 42.36C126.793 42.36 125.641 41.928 124.873 41.064C124.105 40.176 123.721 39.036 123.721 37.644V15H128.185V35.808C128.185 36.768 128.233 37.452 128.329 37.86C128.449 38.244 128.641 38.484 128.905 38.58C129.193 38.652 129.673 38.688 130.345 38.688L129.949 42.36H128.329ZM133.178 16.8H137.642V21.264H133.178V16.8ZM133.178 24H137.642V42H133.178V24ZM156.19 38.22V42H140.386L149.134 27.78H141.214V24H156.118L147.37 38.22H156.19ZM167.237 42.36C165.149 42.36 163.361 41.94 161.873 41.1C160.409 40.236 159.305 39.096 158.561 37.68C157.841 36.24 157.481 34.644 157.481 32.892C157.481 31.212 157.829 29.676 158.525 28.284C159.221 26.892 160.229 25.788 161.549 24.972C162.869 24.132 164.441 23.712 166.265 23.712C167.945 23.712 169.361 24.06 170.513 24.756C171.689 25.452 172.565 26.388 173.141 27.564C173.741 28.74 174.041 30.06 174.041 31.524C174.041 32.244 173.945 33.06 173.753 33.972H162.125C162.365 35.556 162.989 36.744 163.997 37.536C165.005 38.304 166.217 38.688 167.633 38.688C169.577 38.688 171.377 38.196 173.033 37.212L173.249 40.992C172.481 41.4 171.581 41.736 170.549 42C169.541 42.24 168.437 42.36 167.237 42.36ZM169.505 30.948C169.505 30.012 169.241 29.184 168.713 28.464C168.185 27.744 167.369 27.384 166.265 27.384C165.161 27.384 164.273 27.708 163.601 28.356C162.929 29.004 162.473 29.868 162.233 30.948H169.505Z" fill="black"/>
</svg>
